<svg xmlns="http://www.w3.org/2000/svg" viewBox="0 0 1440 320"><path fill="#F9D7F5" fill-opacity="1" d="M0,256L30,224C60,192,120,128,180,96C240,64,300,64,360,101.3C420,139,480,213,540,202.7C600,192,660,96,720,64C780,32,840,64,900,101.3C960,139,1020,181,1080,181.3C1140,181,1200,139,1260,112C1320,85,1380,75,1410,69.3L1440,64L1440,320L1410,320C1380,320,1320,320,1260,320C1200,320,1140,320,1080,320C1020,320,960,320,900,320C840,320,780,320,720,320C660,320,600,320,540,320C480,320,420,320,360,320C300,320,240,320,180,320C120,320,60,320,30,320L0,320Z"></path></svg>